<?xml version="1.0" standalone="no"?>
<!DOCTYPE svg PUBLIC "-//W3C//DTD SVG 20010904//EN"
 "http://www.w3.org/TR/2001/REC-SVG-20010904/DTD/svg10.dtd">
<svg version="1.0" xmlns="http://www.w3.org/2000/svg"
 width="320.000000pt" height="320.000000pt" viewBox="0 0 320.000000 320.000000"
 preserveAspectRatio="xMidYMid meet">
<metadata>
Created by potrace 1.15, written by Peter Selinger 2001-2017
</metadata>
<g transform="translate(0.000000,320.000000) scale(0.100000,-0.100000)"
fill="#000000" stroke="none">
<path d="M1647 2343 c-4 -3 -7 -27 -7 -52 l0 -45 -45 44 -45 44 0 -212 0 -212
-73 0 -72 0 -27 -45 -27 -44 97 -3 97 -3 3 -107 3 -108 -100 0 -99 0 -43 75
-43 76 -115 -3 -116 -3 -23 -42 -23 -43 113 0 113 -1 40 -72 40 -72 128 -3
127 -3 0 -194 0 -195 -155 0 -155 0 28 -50 27 -50 128 0 127 0 0 -75 0 -75
-186 2 -186 3 -89 154 c-49 84 -89 155 -89 156 0 2 -27 49 -60 104 -33 56 -60
103 -60 106 0 3 40 5 90 5 l89 0 42 -70 41 -70 139 0 139 0 0 45 0 45 -114 0
-115 0 -37 70 -38 70 -147 0 -148 0 -31 55 -32 55 94 160 93 160 151 0 150 0
43 75 43 75 44 0 44 0 0 45 0 45 -70 0 -69 0 -42 -70 -41 -70 -89 0 c-49 0
-89 -3 -89 -7 0 -4 17 -24 37 -45 l37 -38 -74 2 -75 1 65 7 c150 14 10 20
-399 18 l-435 -3 -38 -65 c-21 -36 -43 -64 -49 -62 -6 1 -8 -2 -4 -7 3 -6 -8
-36 -25 -67 -17 -32 -33 -75 -36 -96 -4 -20 -10 -35 -15 -32 -5 3 -9 -9 -9
-27 0 -18 3 -29 7 -25 4 3 13 -16 20 -44 7 -28 42 -102 79 -165 39 -67 63
-119 58 -126 -4 -7 -3 -10 4 -5 13 8 105 -151 95 -167 -3 -6 -1 -7 5 -3 11 7
17 -6 13 -27 -1 -5 2 -6 7 -3 11 7 34 -42 26 -55 -3 -5 0 -8 8 -7 7 2 12 -5
12 -14 -1 -10 2 -15 7 -12 8 5 11 -2 8 -22 0 -3 7 -11 17 -18 11 -8 14 -18 9
-26 -5 -8 -4 -11 3 -6 10 6 28 -30 24 -47 -1 -5 2 -6 7 -3 11 7 23 -22 15 -35
-3 -5 0 -8 8 -7 7 2 12 -5 12 -14 -1 -10 2 -16 6 -13 11 7 22 -24 13 -37 -3
-7 -1 -8 5 -4 14 8 36 -30 26 -46 -4 -7 -3 -8 4 -4 11 7 17 -6 13 -27 -1 -5 3
-6 8 -3 11 7 23 -22 14 -36 -3 -6 -1 -8 4 -5 10 7 26 -16 28 -38 0 -6 11 -21
23 -33 13 -13 21 -30 18 -38 -4 -10 -2 -12 6 -8 8 5 9 2 5 -9 -3 -9 -1 -19 5
-23 7 -5 8 -2 3 6 -6 9 -4 11 4 6 7 -5 10 -15 7 -23 -3 -8 -2 -12 3 -9 11 7
23 -22 15 -35 -3 -5 0 -8 8 -7 7 2 12 -5 12 -14 -1 -10 2 -16 6 -13 4 2 13 -8
19 -23 7 -15 12 -27 10 -27 -6 0 67 -70 73 -70 4 0 16 -8 28 -17 11 -10 20
-15 20 -11 0 4 5 2 11 -4 6 -6 18 -9 27 -6 10 4 13 2 8 -5 -4 -6 1 -12 11 -13
10 -1 324 -3 697 -6 749 -4 753 -3 841 57 52 36 44 23 374 595 159 275 257
455 252 462 -4 8 -243 250 -531 538 l-524 525 -171 0 c-95 0 -175 -3 -178 -7z
m430 -125 c39 -68 80 -140 93 -160 l22 -38 -99 0 -99 0 -40 70 -39 70 -67 0
-68 0 0 -44 0 -45 42 -3 c42 -3 44 -5 83 -75 l40 -72 153 -3 153 -3 91 -157
90 -158 -30 -52 -29 -53 -146 -3 -146 -3 -41 -69 -41 -70 -109 0 -110 0 0 -45
0 -45 138 0 137 0 38 70 38 70 91 0 c75 0 89 -2 85 -14 -3 -8 -59 -106 -124
-218 -64 -112 -129 -224 -143 -250 l-25 -48 -182 0 -183 0 0 75 0 75 123 0
122 0 28 45 c15 25 27 48 27 50 0 3 -67 5 -150 5 l-150 0 0 195 0 195 123 0
122 0 43 75 42 75 110 0 c61 0 110 2 110 6 0 3 -10 23 -22 44 l-23 40 -115 0
-115 -1 -43 -74 -42 -75 -95 0 -95 0 0 110 0 110 96 0 96 0 -25 43 -25 42 -71
3 -71 3 0 214 0 215 178 0 179 0 70 -122z"/>
<path d="M2725 1630 l329 -329 27 43 c53 85 89 160 95 198 4 20 10 35 15 32 5
-3 9 9 9 26 0 17 -4 29 -9 26 -5 -3 -11 12 -15 32 -3 21 -19 64 -36 96 -17 31
-28 61 -25 67 4 5 2 8 -4 7 -6 -2 -28 26 -49 62 l-38 65 -315 3 -314 2 330
-330z"/>
</g>
</svg>
